<?xml version="1.0" standalone="no"?>
<!DOCTYPE svg PUBLIC "-//W3C//DTD SVG 20010904//EN"
 "http://www.w3.org/TR/2001/REC-SVG-20010904/DTD/svg10.dtd">
<svg version="1.0" xmlns="http://www.w3.org/2000/svg"
 width="210.000000pt" height="236.000000pt" viewBox="0 0 210.000000 236.000000"
 preserveAspectRatio="xMidYMid meet">

<g transform="translate(0.000000,236.000000) scale(0.100000,-0.100000)"
fill="#000000" stroke="none">
<path d="M945 2354 c-200 -28 -332 -76 -475 -170 -220 -145 -370 -359 -442
-629 -21 -78 -22 -101 -25 -818 l-4 -738 603 4 c651 4 643 4 809 62 338 118
602 430 671 792 20 106 17 567 -4 663 -41 186 -131 363 -255 499 -144 159
-354 276 -573 321 -59 12 -256 21 -305 14z m525 -599 l0 -135 -330 0 -330 0 0
-615 0 -615 -135 0 -135 0 0 750 0 750 465 0 465 0 0 -135z m-156 -575 c67
-69 76 -82 76 -115 0 -33 -9 -46 -76 -115 -45 -47 -86 -80 -102 -83 -42 -8
-81 15 -152 87 -60 62 -65 70 -65 111 0 42 4 49 70 115 69 70 108 91 152 82
12 -2 56 -39 97 -82z"/>
</g>
</svg>
